<?xml version="1.0" encoding="UTF-8" standalone="no"?>
<!-- Created with Inkscape (http://www.inkscape.org/) -->

<svg
   xmlns:dc="http://purl.org/dc/elements/1.1/"
   xmlns:cc="http://creativecommons.org/ns#"
   xmlns:rdf="http://www.w3.org/1999/02/22-rdf-syntax-ns#"
   xmlns:svg="http://www.w3.org/2000/svg"
   xmlns="http://www.w3.org/2000/svg"
   xmlns:xlink="http://www.w3.org/1999/xlink"
   xmlns:sodipodi="http://sodipodi.sourceforge.net/DTD/sodipodi-0.dtd"
   xmlns:inkscape="http://www.inkscape.org/namespaces/inkscape"
   width="1091.1763"
   height="1091.1763"
   id="svg2985"
   version="1.1"
   inkscape:version="0.48.4 r9939"
   sodipodi:docname="delete_icon_normal.svg">
  <defs
     id="defs2987">
    <linearGradient
       inkscape:collect="always"
       id="linearGradient3825">
      <stop
         style="stop-color:#000000;stop-opacity:1;"
         offset="0"
         id="stop3827" />
      <stop
         style="stop-color:#000000;stop-opacity:0;"
         offset="1"
         id="stop3829" />
    </linearGradient>
    <radialGradient
       inkscape:collect="always"
       xlink:href="#linearGradient3825"
       id="radialGradient3831"
       cx="201.42857"
       cy="696.64789"
       fx="201.42857"
       fy="696.64789"
       r="472.85715"
       gradientUnits="userSpaceOnUse" />
  </defs>
  <sodipodi:namedview
     id="base"
     pagecolor="#ffffff"
     bordercolor="#ffffff"
     borderopacity="0.0"
     inkscape:pageopacity="0.0"
     inkscape:pageshadow="0"
     inkscape:zoom="0.12374369"
     inkscape:cx="577.01399"
     inkscape:cy="237.10097"
     inkscape:document-units="px"
     inkscape:current-layer="layer1"
     showgrid="false"
     fit-margin-top="0"
     fit-margin-left="0"
     fit-margin-right="0"
     fit-margin-bottom="0"
     inkscape:window-width="1366"
     inkscape:window-height="713"
     inkscape:window-x="0"
     inkscape:window-y="30"
     inkscape:window-maximized="1" />
  <metadata
     id="metadata2990">
    <rdf:RDF>
      <cc:Work
         rdf:about="">
        <dc:format>image/svg+xml</dc:format>
        <dc:type
           rdf:resource="http://purl.org/dc/dcmitype/StillImage" />
        <dc:title />
      </cc:Work>
    </rdf:RDF>
  </metadata>
  <g
     inkscape:label="Icon-Backround"
     inkscape:groupmode="layer"
     id="layer1"
     transform="translate(553.66933,75.073825)">
    <path
       sodipodi:type="arc"
       style="fill:url(#radialGradient3831);fill-opacity:1;stroke:none"
       id="path2993-7"
       sodipodi:cx="201.42857"
       sodipodi:cy="696.64789"
       sodipodi:rx="472.85715"
       sodipodi:ry="472.85715"
       d="m 674.28572,696.64789 a 472.85715,472.85715 0 1 1 -945.71429,0 472.85715,472.85715 0 1 1 945.71429,0 z"
       transform="matrix(1.1538117,0,0,1.1538117,-240.49187,-333.2862)" />
    <path
       sodipodi:type="arc"
       style="fill:#7a97c8;fill-opacity:1;stroke:none"
       id="path2993"
       sodipodi:cx="201.42857"
       sodipodi:cy="696.64789"
       sodipodi:rx="472.85715"
       sodipodi:ry="472.85715"
       d="m 674.28572,696.64789 a 472.85715,472.85715 0 1 1 -945.71429,0 472.85715,472.85715 0 1 1 945.71429,0 z"
       transform="translate(-209.5098,-226.1336)" />
  </g>
  <g
     inkscape:groupmode="layer"
     id="layer8"
     inkscape:label="Icon-Shader">
    <path
       style="fill:#000000;fill-opacity:1;stroke:none"
       d="m 346.27474,366.95937 c 0.79087,37.13031 72.94475,434.82491 81.14137,445.56686 8.41375,11.02667 250.90522,9.37497 259.27336,-1.76583 7.97363,-10.61548 75.62658,-392.29409 79.18178,-443.75796 -1.00009,0.41697 -2.0223,0.83797 -3.03637,1.24899 -14.83464,17.23899 -82.60454,30.85704 -168.74305,34.0027 -0.0717,0.003 -0.14353,0.0189 -0.21534,0.0215 -12.36525,0.65608 -24.9586,0.99058 -37.74965,0.99058 -12.79911,0 -25.42015,-0.3334 -37.79278,-0.99058 -0.0283,-0.002 -0.0572,0.002 -0.0861,0 -86.34711,-3.13649 -154.27886,-16.80391 -169.00145,-34.08884 -0.993,-0.4031 -1.99218,-0.81867 -2.97174,-1.22747 z"
       id="path6434-1-6-9"
       inkscape:connector-curvature="0" />
    <path
       sodipodi:type="arc"
       style="fill:#000000;fill-opacity:1;stroke:none"
       id="path6948-2-4-4"
       sodipodi:cx="-1558.5714"
       sodipodi:cy="296.89056"
       sodipodi:rx="304.28571"
       sodipodi:ry="80"
       d="m -1254.2857,296.89056 a 304.28571,80 0 1 1 -608.5714,0 304.28571,80 0 1 1 608.5714,0 z"
       transform="matrix(0.67939307,0,0,0.52285361,1618.5599,182.35812)" />
  </g>
  <g
     inkscape:groupmode="layer"
     id="layer9"
     inkscape:label="Icon"
     sodipodi:insensitive="true">
    <path
       style="fill:#ffffff;fill-opacity:1;stroke:none"
       d="m 332.60393,353.34537 c 0.79088,37.13032 72.94474,434.82491 81.14137,445.56687 8.41375,11.02668 250.90523,9.37497 259.27336,-1.76582 7.97364,-10.6155 75.62659,-392.2941 79.18179,-443.75798 -1.00009,0.41698 -2.0223,0.83797 -3.03638,1.24899 -14.83464,17.239 -82.60453,30.85704 -168.74303,34.00271 -0.0717,0.003 -0.14355,0.0189 -0.21534,0.0215 -12.36526,0.65609 -24.95861,0.99058 -37.74966,0.99058 -12.79911,0 -25.42016,-0.3334 -37.7928,-0.99058 -0.0283,-0.002 -0.0572,0.002 -0.0861,0 -86.34708,-3.13648 -154.27885,-16.8039 -169.00143,-34.08884 -0.993,-0.4031 -1.99219,-0.81866 -2.97174,-1.22747 z"
       id="path6434-1-6"
       inkscape:connector-curvature="0" />
    <path
       sodipodi:type="arc"
       style="fill:#ffffff;fill-opacity:1;stroke:none"
       id="path6948-2-4"
       sodipodi:cx="-1558.5714"
       sodipodi:cy="296.89056"
       sodipodi:rx="304.28571"
       sodipodi:ry="80"
       d="m -1254.2857,296.89056 a 304.28571,80 0 1 1 -608.5714,0 304.28571,80 0 1 1 608.5714,0 z"
       transform="matrix(0.67939307,0,0,0.52285361,1601.2847,175.97377)" />
  </g>
</svg>
