<?xml version="1.0" encoding="UTF-8" standalone="no"?>
<!-- Created with Inkscape (http://www.inkscape.org/) -->

<svg
   xmlns:dc="http://purl.org/dc/elements/1.1/"
   xmlns:cc="http://creativecommons.org/ns#"
   xmlns:rdf="http://www.w3.org/1999/02/22-rdf-syntax-ns#"
   xmlns:svg="http://www.w3.org/2000/svg"
   xmlns="http://www.w3.org/2000/svg"
   xmlns:sodipodi="http://sodipodi.sourceforge.net/DTD/sodipodi-0.dtd"
   xmlns:inkscape="http://www.inkscape.org/namespaces/inkscape"
   width="851.42859"
   height="851.42859"
   id="svg2985"
   version="1.1"
   inkscape:version="0.48.4 r9939"
   sodipodi:docname="persons_menu_selected.svg">
  <defs
     id="defs2987">
    <clipPath
       clipPathUnits="userSpaceOnUse"
       id="clipPath240">
      <path
         inkscape:connector-curvature="0"
         d="m 5471.99,4845 c 0,-381.07 -308.9,-690 -690,-690 -381.07,0 -690,308.93 -690,690 0,381.08 308.93,690 690,690 381.1,0 690,-308.92 690,-690"
         id="path242" />
    </clipPath>
  </defs>
  <sodipodi:namedview
     id="base"
     pagecolor="#ffffff"
     bordercolor="#ffffff"
     borderopacity="0.0"
     inkscape:pageopacity="0.0"
     inkscape:pageshadow="0"
     inkscape:zoom="0.32"
     inkscape:cx="433.26272"
     inkscape:cy="255.59724"
     inkscape:document-units="px"
     inkscape:current-layer="layer1"
     showgrid="false"
     showguides="true"
     inkscape:guide-bbox="true"
     fit-margin-top="0"
     fit-margin-left="0"
     fit-margin-right="0"
     fit-margin-bottom="0"
     inkscape:window-width="1366"
     inkscape:window-height="713"
     inkscape:window-x="0"
     inkscape:window-y="30"
     inkscape:window-maximized="1">
    <sodipodi:guide
       orientation="0,1"
       position="-118.57141,1001.4285"
       id="guide3796" />
  </sodipodi:namedview>
  <metadata
     id="metadata2990">
    <rdf:RDF>
      <cc:Work
         rdf:about="">
        <dc:format>image/svg+xml</dc:format>
        <dc:type
           rdf:resource="http://purl.org/dc/dcmitype/StillImage" />
        <dc:title></dc:title>
      </cc:Work>
    </rdf:RDF>
  </metadata>
  <g
     inkscape:groupmode="layer"
     id="layer2"
     inkscape:label="Shader"
     transform="translate(1161.4286,-108.07643)" />
  <g
     inkscape:label="Layer 1"
     inkscape:groupmode="layer"
     id="layer1"
     style="display:inline"
     transform="translate(1161.4286,-108.07643)">
    <rect
       style="fill:#bbc0c8;fill-opacity:1;stroke:none"
       id="rect2993"
       width="851.42859"
       height="851.42859"
       x="-1161.4286"
       y="108.07643" />
    <g
       id="g236"
       transform="matrix(0.5718787,0,0,-0.5718787,-3472.2596,3277.0708)"
       style="fill:#000000;fill-opacity:1;stroke:#000000;stroke-opacity:1">
      <g
         id="g238"
         clip-path="url(#clipPath240)"
         style="fill:#000000;fill-opacity:1">
        <path
           d="m 4805.79,4100 549.7,69.17 c 0,0 -6.52,281.54 -66.06,310.28 -37.55,18.14 -154.49,44.14 -232.46,90.55 -23.34,40 -59.58,65.58 -76.81,76.67 l -34.56,74.49 c 0,0 44.45,65.51 74.07,182.17 0,0 28.78,-29.85 39.05,25.6 9.14,49.35 16.38,104.89 -13.99,99.13 l -0.32,1.33 c 3.01,1.92 5.47,5.02 6.41,9.6 1.63,7.96 -2.89,18 -4.63,25.85 -0.83,3.75 -2.42,6.87 -4.39,9.61 -0.07,2.59 -0.1,5.16 -0.27,7.79 1.95,1.04 3.63,2.68 4.61,4.79 7.39,15.68 4.25,32.02 -3.24,48.18 2.34,0.95 3.78,3.05 4.37,5.37 1.9,2.02 3.12,4.79 3.53,7.73 0.81,5.86 -3.68,9.81 -8.12,12.56 l 0.23,0.17 c 5.44,4.79 5.57,15.11 -1.28,18.91 l -0.08,0.03 c -0.91,2.1 -2.85,3.48 -4.98,4.53 l -0.06,0.67 c 3.94,3.57 4.7,9.76 1.05,13.99 -1.24,1.43 -2.66,2.48 -4.12,3.45 -0.52,1.51 -1.08,2.99 -1.75,4.35 3.18,3.05 4.96,7.56 4.17,12.29 l -0.13,0.72 c -0.88,5.23 -5.86,10.37 -11.39,10.77 l -0.62,0.46 -2.32,2.32 -2.03,2 c 4.47,1.37 8.09,5.06 8.6,10.99 1.51,17.56 -13.28,33.19 -25.18,44.24 -3.97,3.69 -7.86,6.51 -12.28,8.51 l -0.06,0.08 c 8.57,-0.19 14.07,10.97 11.03,18.75 -1.27,3.25 -3.25,5.79 -5.51,8.05 5.69,1.77 10.29,7.11 8.51,13.59 -3.31,12.04 -10.46,19.43 -19.75,24 -4.62,16 -15.53,20.1 -28.59,20.16 -0.19,1.25 -0.38,2.5 -0.57,3.75 -0.7,4.45 -4.4,8.97 -8.8,10.19 -5.84,1.61 -12.14,1.92 -18.59,1.55 2.25,5.71 0.94,12.33 -6.82,14.3 -7.67,1.94 -15.26,2.16 -22.79,1.47 -0.29,5.14 -4.04,10.13 -10.22,11.18 -9.69,1.64 -19.54,-0.1 -29.13,-3.39 -3.27,5.48 -10.03,9.35 -17.68,6.77 -5.95,-2.02 -11.53,-4.53 -16.94,-7.27 -1.01,1.44 -2.4,2.67 -4.2,3.47 -11.44,5.09 -23.39,-3.54 -33.39,-12.27 -0.79,2.88 -2.38,5.53 -4.48,7.44 1.1,1.14 1.97,2.59 2.46,4.69 0.91,3.92 -2.96,9.18 -7.3,6.46 -3.61,-2.26 -15.29,-2.74 -20.33,-4.58 -15.21,-5.55 -29.14,-14.98 -42.05,-24.56 l -0.71,-0.56 c -0.93,0.4 -1.99,0.59 -3.14,0.49 l -0.17,-0.02 c 3.44,3.21 6.96,6.36 10.63,9.48 5.43,4.61 0.54,12.12 -5.65,11.58 -22.46,-1.97 -37.61,-25.08 -49.64,-41.46 -0.77,-1.05 -1.47,-2.18 -2.23,-3.25 l -2.39,-2.43 c 1.71,3.53 3.43,7.04 4.97,10.67 3.33,7.85 -8.58,13.37 -13.12,6.5 l -1.47,-2.35 c -10.4,-3.88 -20.61,-17.37 -27.04,-27.93 -5.64,-5.74 -10.53,-12.22 -14.42,-17.6 -6.01,-8.29 -11.56,-17.38 -16.26,-26.91 l -1.74,-1.75 c -2.87,-0.91 -5.26,-3.28 -5.7,-6.24 -1.16,-1.33 -2.31,-2.65 -3.44,-3.94 -12.82,-14.49 -24.25,-35.11 -22.5,-54.94 l 0.19,-0.72 c -4.63,-1.95 -7.99,-5.57 -10.28,-10.33 -1.21,-2.52 -1.08,-5.16 -0.16,-7.57 -11.46,-10.84 -21.22,-30.01 -14.25,-45.33 l 1.14,-1.41 c -1.95,-2.5 -2.46,-5.3 -2.03,-8.78 l 0.78,-2.45 c -1.49,-2.11 -2.9,-4.29 -4.11,-6.54 -6.94,-12.92 -9.72,-29.7 -3.47,-43.24 -4.97,-3.82 -8.32,-8.58 -8.68,-15.35 -0.26,-5.01 2.73,-8.12 6.42,-9.36 -9.16,-16.25 -13.31,-34.62 -3.83,-47.44 l -0.39,-0.46 c -5.17,-6.39 -6.33,-16.32 -3.58,-23.8 l 0.75,-1.28 c -27.57,2.36 -20.58,-51.46 -11.69,-99.45 10.27,-55.45 39.01,-25.6 39.01,-25.6 29.62,-116.66 74.08,-182.17 74.08,-182.17 l -34.51,-74.49 c -17.23,-11.09 -53.33,-36.67 -76.67,-76.67 -77.97,-46.41 -194.61,-72.41 -232.17,-90.55 -59.54,-28.74 -64.98,-310.28 -64.98,-310.28 L 4805.79,4100"
           style="fill:#000000;fill-opacity:1;fill-rule:nonzero;stroke:none"
           id="path244"
           inkscape:connector-curvature="0" />
      </g>
    </g>
  </g>
</svg>
