<?xml version="1.0" encoding="UTF-8" standalone="no"?>
<!-- Created with Inkscape (http://www.inkscape.org/) -->

<svg
   xmlns:dc="http://purl.org/dc/elements/1.1/"
   xmlns:cc="http://creativecommons.org/ns#"
   xmlns:rdf="http://www.w3.org/1999/02/22-rdf-syntax-ns#"
   xmlns:svg="http://www.w3.org/2000/svg"
   xmlns="http://www.w3.org/2000/svg"
   xmlns:xlink="http://www.w3.org/1999/xlink"
   xmlns:sodipodi="http://sodipodi.sourceforge.net/DTD/sodipodi-0.dtd"
   xmlns:inkscape="http://www.inkscape.org/namespaces/inkscape"
   width="851.42859"
   height="851.42859"
   id="svg2985"
   version="1.1"
   inkscape:version="0.48.4 r9939"
   sodipodi:docname="settings_menu_normal.svg">
  <defs
     id="defs2987">
    <linearGradient
       inkscape:collect="always"
       id="linearGradient3783">
      <stop
         style="stop-color:#323232;stop-opacity:1;"
         offset="0"
         id="stop3785" />
      <stop
         style="stop-color:#323232;stop-opacity:0;"
         offset="1"
         id="stop3787" />
    </linearGradient>
    <radialGradient
       inkscape:collect="always"
       xlink:href="#linearGradient3783"
       id="radialGradient3789"
       cx="-110"
       cy="785.2193"
       fx="-110"
       fy="785.2193"
       r="450"
       gradientUnits="userSpaceOnUse" />
    <radialGradient
       inkscape:collect="always"
       xlink:href="#linearGradient3783"
       id="radialGradient3794"
       gradientUnits="userSpaceOnUse"
       cx="-110"
       cy="785.2193"
       fx="-110"
       fy="785.2193"
       r="450"
       gradientTransform="matrix(1.2825397,0,0,1.2825397,-1024.6349,93.858669)" />
  </defs>
  <sodipodi:namedview
     id="base"
     pagecolor="#ffffff"
     bordercolor="#ffffff"
     borderopacity="0.0"
     inkscape:pageopacity="0.0"
     inkscape:pageshadow="0"
     inkscape:zoom="0.7"
     inkscape:cx="424.88465"
     inkscape:cy="424.48216"
     inkscape:document-units="px"
     inkscape:current-layer="layer1"
     showgrid="false"
     showguides="true"
     inkscape:guide-bbox="true"
     fit-margin-top="0"
     fit-margin-left="0"
     fit-margin-right="0"
     fit-margin-bottom="0"
     inkscape:window-width="1366"
     inkscape:window-height="713"
     inkscape:window-x="0"
     inkscape:window-y="30"
     inkscape:window-maximized="1"
     inkscape:snap-object-midpoints="true"
     inkscape:snap-center="true"
     inkscape:snap-bbox="false">
    <sodipodi:guide
       orientation="0,1"
       position="255.71435,1024.2856"
       id="guide3796" />
  </sodipodi:namedview>
  <metadata
     id="metadata2990">
    <rdf:RDF>
      <cc:Work
         rdf:about="">
        <dc:format>image/svg+xml</dc:format>
        <dc:type
           rdf:resource="http://purl.org/dc/dcmitype/StillImage" />
        <dc:title></dc:title>
      </cc:Work>
    </rdf:RDF>
  </metadata>
  <g
     inkscape:groupmode="layer"
     id="layer2"
     inkscape:label="Shader"
     transform="translate(1535.7144,-130.93358)" />
  <g
     inkscape:label="Layer 1"
     inkscape:groupmode="layer"
     id="layer1"
     style="display:inline"
     transform="translate(1535.7144,-130.93358)">
    <rect
       style="fill:#515151;fill-opacity:1;stroke:none;display:inline"
       id="rect2993-1"
       width="851.42859"
       height="851.42859"
       x="-1535.7144"
       y="130.93358" />
    <path
       style="fill:#1c1c1c;fill-opacity:1;stroke:none;display:inline"
       d="m -1038.0965,211.89341 c -9.9449,0.77662 -19.7468,2.09206 -29.3651,3.90269 -1.8822,11.28915 -1.833,26.46173 -1.3289,42.65527 -10.1953,2.34442 -20.1319,5.34998 -29.766,8.98672 -8.5546,-13.74835 -16.9409,-26.39692 -24.7662,-34.74443 -9.1239,3.86921 -17.9945,8.19634 -26.5804,12.99488 1.7841,11.30601 6.616,25.69596 12.2144,40.90435 -7.8794,4.82517 -15.4548,10.1206 -22.6778,15.82169 -12.2945,-10.51456 -24.0983,-20.04179 -34.0694,-25.65224 -7.5127,6.42821 -14.6786,13.2472 -21.4542,20.44163 5.1178,10.24298 14.0656,22.49769 23.9857,35.29291 -6.792,7.80847 -13.0611,16.07338 -18.7751,24.74513 -15.02,-6.10293 -29.2379,-11.42779 -40.4824,-13.58556 -5.0837,8.42639 -9.7323,17.15094 -13.902,26.13743 8.0823,8.10367 20.4491,16.91011 33.9217,25.92648 -3.5207,8.46105 -6.5775,17.16329 -9.0922,26.09524 -16.1453,-1.28029 -31.292,-2.03752 -42.6552,-0.69616 -2.2742,9.52718 -4.0456,19.24843 -5.295,29.13301 10.1631,5.27907 24.6096,9.92673 40.1659,14.45047 -0.5754,6.67011 -0.886,13.4114 -0.886,20.23067 0,3.62703 0.089,7.23562 0.2532,10.82204 -15.7236,3.88751 -30.3496,7.94123 -40.7145,12.80502 0.8492,9.94259 2.2305,19.73305 4.1137,29.34396 11.299,1.79751 26.466,1.63677 42.6552,1.01259 2.1504,9.04172 4.8227,17.87711 7.9952,26.47496 -13.8173,8.45601 -26.5291,16.7496 -34.9342,24.51307 3.8025,9.15717 8.0901,18.06229 12.8261,26.68592 11.3202,-1.69848 25.7493,-6.4374 40.9887,-11.91901 5.3622,8.90351 11.3137,17.40988 17.7836,25.48347 -10.4335,12.38423 -19.8859,24.25727 -25.4202,34.28033 6.4879,7.47166 13.3594,14.57775 20.6104,21.30654 10.2,-5.19696 22.3841,-14.2472 35.103,-24.25992 6.9845,5.98549 14.3364,11.5736 22.0027,16.7077 -6.2048,14.95247 -11.6139,29.13228 -13.8598,40.35586 8.3879,5.14568 17.0793,9.85628 26.032,14.09185 8.156,-8.02598 17.0534,-20.32157 26.1585,-33.71075 9.4857,4.03129 19.2829,7.45314 29.3651,10.21027 -1.1613,16.16092 -1.8061,31.32477 -0.3798,42.67637 9.539,2.20121 19.284,3.88713 29.1752,5.06294 5.2018,-10.19459 9.7492,-24.66871 14.1552,-40.25038 6.1078,0.48135 12.2693,0.71725 18.5008,0.71725 3.0439,0 6.0767,-0.0528 9.0922,-0.16876 3.7679,15.74166 7.70955,30.39786 12.48865,40.79886 9.95186,-0.77564 19.76126,-2.07052 29.38606,-3.88159 1.8824,-11.28915 1.8331,-26.46173 1.3291,-42.65527 10.1969,-2.34475 20.1514,-5.34922 29.7869,-8.98672 8.5554,13.7495 16.9458,26.39695 24.7663,34.74443 9.1184,-3.86685 17.9783,-8.2209 26.5593,-13.01598 -1.7846,-11.3106 -6.6165,-25.69749 -12.2143,-40.90434 7.8822,-4.82654 15.4521,-10.09753 22.6777,-15.8006 12.2944,10.51437 24.0929,20.04176 34.0694,25.65224 7.5189,-6.43213 14.6945,-13.24211 21.4753,-20.44163 -5.1236,-10.23811 -14.0894,-22.47966 -24.0068,-35.27182 6.7992,-7.8148 13.0769,-16.0865 18.7962,-24.76622 15.0163,6.10107 29.2367,11.42762 40.4824,13.58556 5.0825,-8.42327 9.7117,-17.15438 13.88091,-26.13743 -8.08361,-8.09658 -20.43891,-16.89575 -33.90061,-25.90538 3.5238,-8.46641 6.5547,-17.19948 9.0711,-26.13743 16.1511,1.28115 31.31402,2.05342 42.67637,0.71725 2.27494,-9.52938 4.04518,-19.24604 5.29499,-29.13301 -10.15789,-5.27913 -24.6101,-9.92682 -40.16596,-14.45048 0.5754,-6.66997 0.8649,-13.43262 0.8649,-20.25176 0,-3.62288 -0.089,-7.21858 -0.2532,-10.80094 15.72574,-3.8877 30.34547,-7.9424 40.71452,-12.80502 -0.84922,-9.94409 -2.20916,-19.73165 -4.09254,-29.34396 -11.30016,-1.80306 -26.47,-1.65736 -42.65528,-1.03368 -2.1488,-9.03403 -4.826,-17.86297 -7.9952,-26.45387 13.8188,-8.45689 26.53451,-16.74901 34.93427,-24.51307 -3.79924,-9.14926 -8.09505,-18.04816 -12.82617,-26.66482 -11.3177,1.70108 -25.7389,6.43355 -40.9887,11.919 -5.3657,-8.91138 -11.3084,-17.4244 -17.7836,-25.50456 10.4335,-12.38423 19.8859,-24.25727 25.4202,-34.28033 -6.4875,-7.47119 -13.3598,-14.57812 -20.6104,-21.30654 -10.208,5.19521 -22.3957,14.23948 -35.1241,24.25992 -6.9837,-5.98485 -14.3162,-11.57406 -21.9816,-16.7077 6.2091,-14.96292 11.6222,-29.14957 13.8598,-40.37696 -8.3943,-5.14963 -17.0931,-9.85375 -26.0531,-14.09185 -8.1548,8.02153 -17.0314,20.32113 -26.1374,33.71075 -9.4768,-4.0271 -19.2929,-7.43377 -29.3651,-10.18917 1.1611,-16.15885 1.8054,-31.31989 0.3797,-42.67637 -9.5391,-2.20128 -19.2836,-3.90822 -29.1751,-5.08404 -5.2054,10.20085 -9.74676,24.68133 -14.15516,40.27148 -6.10775,-0.48135 -12.29055,-0.73835 -18.52195,-0.73835 -3.0368,0 -6.0626,0.0744 -9.0711,0.18986 -3.7717,-15.75769 -7.7412,-30.41407 -12.5308,-40.81996 z m 21.6019,144.77901 c 70.83671,0 128.26121,57.42449 128.26121,128.26117 0,70.83669 -57.4245,128.26117 -128.26121,128.26117 -70.8367,0 -128.2612,-57.42448 -128.2612,-128.26117 0,-70.83668 57.4245,-128.26117 128.2612,-128.26117 z"
       id="path3025-3-5"
       inkscape:connector-curvature="0" />
    <path
       inkscape:connector-curvature="0"
       style="fill:#1c1c1c;fill-opacity:1;stroke:none;display:inline"
       d="m -1339.042,625.60772 c -5.6783,0.44342 -11.2748,1.19449 -16.7666,2.2283 -1.0747,6.44576 -1.0466,15.10882 -0.7588,24.35482 -5.8212,1.33859 -11.4946,3.05467 -16.9954,5.13114 -4.8844,-7.84988 -9.6727,-15.07182 -14.1407,-19.83798 -5.2095,2.2092 -10.2743,4.67985 -15.1766,7.41967 1.0187,6.45537 3.7775,14.67158 6.974,23.35509 -4.4988,2.75502 -8.8241,5.77855 -12.9483,9.03369 -7.0198,-6.00349 -13.7593,-11.44323 -19.4525,-14.64662 -4.2895,3.67031 -8.381,7.56373 -12.2497,11.67152 2.9221,5.84842 8.0311,12.84548 13.6951,20.15114 -3.878,4.45839 -7.4575,9.17739 -10.72,14.12869 -8.5759,-3.48458 -16.6939,-6.52491 -23.1141,-7.75693 -2.9027,4.81121 -5.5569,9.79265 -7.9376,14.92365 4.6147,4.62695 11.6757,9.65514 19.3682,14.8032 -2.0102,4.831 -3.7556,9.7997 -5.1914,14.89956 -9.2185,-0.731 -17.8668,-1.16335 -24.3548,-0.39748 -1.2985,5.43972 -2.3099,10.99024 -3.0233,16.63402 5.8029,3.01419 14.0514,5.66786 22.9335,8.25077 -0.3285,3.80842 -0.5058,7.65749 -0.5058,11.55107 0,2.07092 0.051,4.13131 0.1445,6.17905 -8.9777,2.21964 -17.3287,4.53419 -23.2467,7.31126 0.4849,5.67691 1.2736,11.26695 2.3488,16.75447 6.4513,1.02633 15.1112,0.93455 24.3548,0.57816 1.2277,5.16254 2.7536,10.20727 4.565,15.11637 -7.8893,4.82811 -15.1473,9.56349 -19.9464,13.99619 2.1712,5.22845 4.6193,10.31298 7.3233,15.23683 6.4635,-0.9698 14.7021,-3.67558 23.4033,-6.80539 3.0617,5.08363 6.4597,9.94049 10.1539,14.55024 -5.9572,7.071 -11.3542,13.85015 -14.5142,19.57301 3.7044,4.26608 7.6278,8.32346 11.7679,12.16538 5.8239,-2.96732 12.7806,-8.13474 20.0428,-13.85167 3.9878,3.41752 8.1856,6.6082 12.5628,9.53955 -3.5428,8.53742 -6.6312,16.63362 -7.9135,23.04194 4.7892,2.93803 9.7517,5.62764 14.8634,8.04596 4.6569,-4.58253 9.737,-11.60294 14.9357,-19.24775 5.4161,2.30175 11.01,4.25557 16.7665,5.82975 -0.663,9.22737 -1.0312,17.88549 -0.2168,24.36689 5.4464,1.25683 11.0106,2.21941 16.6581,2.89074 2.9701,-5.82074 5.5665,-14.08505 8.0822,-22.98166 3.4874,0.27483 7.0054,0.40955 10.5633,0.40955 1.738,0 3.4697,-0.03 5.1914,-0.0964 2.1514,8.98796 4.4019,17.35617 7.1306,23.29484 5.6822,-0.44288 11.2831,-1.18221 16.7785,-2.21628 1.0748,-6.44575 1.0467,-15.10883 0.7589,-24.35483 5.8222,-1.33873 11.5058,-3.05424 17.0074,-5.13109 4.8849,7.85047 9.6755,15.07182 14.1407,19.83797 5.2064,-2.20783 10.2651,-4.69385 15.1646,-7.43174 -1.0189,-6.458 -3.7778,-14.67244 -6.974,-23.35512 4.5005,-2.75577 8.8227,-5.76535 12.9483,-9.02159 7.0197,6.00337 13.7563,11.44323 19.4525,14.64659 4.2931,-3.67252 8.3901,-7.56081 12.2617,-11.67149 -2.9254,-5.84565 -8.0445,-12.83521 -13.7071,-20.13913 3.8821,-4.46197 7.4666,-9.18485 10.7321,-14.14072 8.5738,3.48354 16.6932,6.52483 23.1141,7.75692 2.902,-4.80941 5.5451,-9.79461 7.9256,-14.92364 -4.6155,-4.62289 -11.67,-9.64694 -19.3562,-14.79115 2.012,-4.83405 3.7426,-9.82036 5.1793,-14.92365 9.2218,0.73149 17.8794,1.17244 24.3669,0.40953 1.2989,-5.44098 2.3097,-10.98888 3.0233,-16.63403 -5.7998,-3.01422 -14.0516,-5.6679 -22.9335,-8.25077 0.3285,-3.80835 0.4938,-7.6696 0.4938,-11.56312 0,-2.06855 -0.051,-4.12158 -0.1446,-6.16699 8.9789,-2.21976 17.3264,-4.53486 23.2467,-7.31127 -0.4848,-5.67776 -1.2613,-11.26615 -2.3366,-16.75447 -6.4521,-1.02949 -15.1136,-0.9463 -24.3549,-0.5902 -1.2269,-5.15814 -2.7555,-10.19919 -4.565,-15.10433 7.8901,-4.82862 15.1504,-9.56315 19.9464,-13.99619 -2.1693,-5.22393 -4.622,-10.30492 -7.3233,-15.22476 -6.4621,0.97125 -14.6961,3.67335 -23.4033,6.80537 -3.0636,-5.08812 -6.4568,-9.94878 -10.1539,-14.5623 5.9572,-7.07101 11.3542,-13.85014 14.5142,-19.57299 -3.7042,-4.26582 -7.6281,-8.32365 -11.7679,-12.16536 -5.8285,2.9663 -12.7873,8.13029 -20.0548,13.85165 -3.9875,-3.41716 -8.1741,-6.60842 -12.5508,-9.53957 3.5452,-8.54336 6.6359,-16.64348 7.9135,-23.05397 -4.7929,-2.94028 -9.7596,-5.62618 -14.8755,-8.046 -4.6561,4.58004 -9.7244,11.60272 -14.9236,19.24777 -5.4109,-2.29934 -11.0157,-4.24445 -16.7666,-5.81769 0.663,-9.2262 1.0309,-17.88267 0.2169,-24.36686 -5.4466,-1.25686 -11.0104,-2.23148 -16.6582,-2.90283 -2.9721,5.82436 -5.5651,14.09226 -8.0821,22.99374 -3.4873,-0.27483 -7.0175,-0.42157 -10.5755,-0.42157 -1.7339,0 -3.4615,0.0425 -5.1793,0.10841 -2.1535,-8.99716 -4.4199,-17.36548 -7.1546,-23.30691 z m 12.3339,82.66424 c 40.4456,0 73.2332,32.78757 73.2332,73.23308 0,40.44552 -32.7876,73.23307 -73.2332,73.23307 -40.4454,0 -73.2331,-32.78755 -73.2331,-73.23307 0,-40.44551 32.7877,-73.23308 73.2331,-73.23308 z"
       id="path3025-3-7-6" />
    <path
       inkscape:connector-curvature="0"
       style="fill:#1c1c1c;fill-opacity:1;stroke:none;display:inline"
       d="m -1402.8112,441.89344 c -3.5449,0.27682 -7.0388,0.74571 -10.4673,1.39111 -0.6708,4.02406 -0.6533,9.43236 -0.4737,15.20459 -3.6341,0.83568 -7.176,1.90702 -10.6101,3.20335 -3.0493,-4.90064 -6.0386,-9.40926 -8.828,-12.38475 -3.2522,1.37919 -6.4142,2.9216 -9.4746,4.63206 0.636,4.03005 2.3582,9.15939 4.3538,14.58046 -2.8086,1.71995 -5.5089,3.60752 -8.0836,5.63969 -4.3824,-3.74795 -8.5898,-7.14395 -12.1441,-9.14381 -2.6779,2.29135 -5.2322,4.722 -7.6474,7.28647 1.8243,3.65114 5.0138,8.01936 8.5498,12.58025 -2.421,2.78335 -4.6557,5.7294 -6.6925,8.82047 -5.3538,-2.17541 -10.4219,-4.07347 -14.43,-4.84261 -1.8121,3.00361 -3.4691,6.1135 -4.9554,9.31676 2.881,2.88858 7.2891,6.02765 12.0915,9.24156 -1.255,3.01597 -2.3446,6.1179 -3.241,9.30172 -5.755,-0.45636 -11.1541,-0.72628 -15.2045,-0.24815 -0.8107,3.39599 -1.4421,6.86115 -1.8875,10.38453 3.6227,1.88175 8.7722,3.53842 14.3173,5.15092 -0.2051,2.37757 -0.3158,4.78053 -0.3158,7.21127 0,1.29287 0.032,2.57916 0.09,3.85755 -5.6046,1.38571 -10.8182,2.83067 -14.5127,4.56438 0.3027,3.54407 0.795,7.0339 1.4663,10.45973 4.0275,0.64073 9.4339,0.58344 15.2046,0.36094 0.7664,3.22295 1.7191,6.37235 2.8499,9.43708 -4.9252,3.01416 -9.4564,5.97043 -12.4524,8.73775 1.3555,3.26409 2.8838,6.43834 4.5719,9.51227 4.0351,-0.60544 9.1784,-2.29465 14.6105,-4.24857 1.9115,3.17368 4.0328,6.2058 6.3391,9.08364 -3.7191,4.41439 -7.0884,8.64658 -9.0612,12.21933 2.3127,2.66329 4.762,5.19629 7.3467,7.59478 3.6358,-1.85248 7.9788,-5.07847 12.5125,-8.64752 2.4897,2.13354 5.1103,4.12546 7.8429,5.95549 -2.2117,5.32987 -4.1398,10.38428 -4.9403,14.38496 2.9898,1.8342 6.0879,3.51331 9.2791,5.02306 2.9073,-2.86085 6.0788,-7.24366 9.3243,-12.01628 3.3812,1.43697 6.8735,2.65673 10.4672,3.63949 -0.4139,5.7606 -0.6437,11.16582 -0.1353,15.21212 3.4001,0.78463 6.8738,1.38557 10.3995,1.80468 1.8543,-3.63386 3.4752,-8.79323 5.0457,-14.34734 2.1772,0.17158 4.3735,0.25568 6.5946,0.25568 1.0851,0 2.1662,-0.0187 3.241,-0.0602 1.3431,5.61114 2.7481,10.83537 4.4516,14.54285 3.5474,-0.27649 7.044,-0.73805 10.4747,-1.38361 0.671,-4.02405 0.6535,-9.43237 0.4738,-15.2046 3.6348,-0.83576 7.183,-1.90674 10.6176,-3.20331 3.0497,4.90101 6.0404,9.40926 8.828,12.38474 3.2503,-1.37833 6.4085,-2.93034 9.4672,-4.63959 -0.6361,-4.0317 -2.3585,-9.15993 -4.3538,-14.58049 2.8096,-1.72041 5.5079,-3.59927 8.0835,-5.63213 4.3824,3.74787 8.588,7.14395 12.1441,9.14379 2.6802,-2.29273 5.2379,-4.72017 7.6549,-7.28645 -1.8263,-3.64941 -5.0221,-8.01295 -8.5572,-12.57275 2.4235,-2.78559 4.6613,-5.73406 6.6999,-8.82798 5.3526,2.17475 10.4215,4.07341 14.4301,4.8426 1.8117,-3.00249 3.4617,-6.11472 4.9479,-9.31675 -2.8815,-2.88605 -7.2855,-6.02253 -12.084,-9.23404 1.2561,-3.01787 2.3365,-6.1308 3.2334,-9.31676 5.7571,0.45667 11.162,0.73195 15.2121,0.25567 0.8109,-3.39677 1.442,-6.8603 1.8875,-10.38454 -3.6208,-1.88176 -8.7724,-3.53844 -14.3173,-5.15091 0.2051,-2.37753 0.3083,-4.78809 0.3083,-7.2188 0,-1.29138 -0.032,-2.57308 -0.09,-3.85002 5.6055,-1.38578 10.8168,-2.83109 14.5128,-4.56439 -0.3027,-3.54459 -0.7874,-7.0334 -1.4587,-10.45973 -4.028,-0.6427 -9.4354,-0.59077 -15.2047,-0.36845 -0.7659,-3.2202 -1.7202,-6.36731 -2.8499,-9.42956 4.9258,-3.01448 9.4583,-5.97023 12.4525,-8.73775 -1.3543,-3.26127 -2.8855,-6.43331 -4.5719,-9.50474 -4.0343,0.60635 -9.1747,2.29325 -14.6106,4.24856 -1.9126,-3.17649 -4.0309,-6.21097 -6.339,-9.09117 3.719,-4.4144 7.0883,-8.64657 9.0611,-12.21932 -2.3125,-2.66313 -4.7622,-5.19641 -7.3466,-7.59477 -3.6387,1.85185 -7.9831,5.0757 -12.5201,8.64751 -2.4894,-2.13331 -5.1031,-4.1256 -7.8354,-5.9555 2.2132,-5.33358 4.1427,-10.39044 4.9403,-14.39247 -2.9922,-1.83561 -6.0928,-3.5124 -9.2867,-5.02308 -2.9067,2.85929 -6.0709,7.24352 -9.3167,12.01628 -3.378,-1.43546 -6.877,-2.64979 -10.4673,-3.63195 0.4139,-5.75987 0.6436,-11.16406 0.1354,-15.21211 -3.4003,-0.78465 -6.8737,-1.3931 -10.3996,-1.81222 -1.8555,3.63612 -3.4743,8.79773 -5.0456,14.35488 -2.1771,-0.17158 -4.381,-0.26319 -6.6023,-0.26319 -1.0824,0 -2.161,0.0265 -3.2334,0.0677 -1.3444,-5.61688 -2.7593,-10.84118 -4.4666,-14.55038 z m 7.7,51.60686 c 25.25,0 45.7191,20.46911 45.7191,45.71903 0,25.24993 -20.4691,45.71903 -45.7191,45.71903 -25.2498,0 -45.7189,-20.4691 -45.7189,-45.71903 0,-25.24992 20.4691,-45.71903 45.7189,-45.71903 z"
       id="path3025-3-7-5-2" />
    <g
       id="g3900">
      <path
         inkscape:connector-curvature="0"
         id="path3025-3"
         d="m -1045.8064,195.03626 c -9.9449,0.77662 -19.7468,2.09206 -29.3651,3.90269 -1.8822,11.28915 -1.833,26.46173 -1.3289,42.65527 -10.1953,2.34442 -20.1319,5.34998 -29.766,8.98672 -8.5546,-13.74835 -16.9409,-26.39692 -24.7662,-34.74443 -9.1239,3.86921 -17.9945,8.19634 -26.5804,12.99488 1.7841,11.30601 6.616,25.69596 12.2144,40.90435 -7.8794,4.82517 -15.4548,10.1206 -22.6778,15.82169 -12.2945,-10.51456 -24.0983,-20.04179 -34.0694,-25.65224 -7.5127,6.42821 -14.6786,13.2472 -21.4542,20.44163 5.1178,10.24298 14.0656,22.49769 23.9857,35.29291 -6.792,7.80847 -13.0611,16.07338 -18.7751,24.74513 -15.02,-6.10293 -29.2379,-11.42779 -40.4824,-13.58556 -5.0837,8.42639 -9.7323,17.15094 -13.902,26.13743 8.0823,8.10367 20.4491,16.91011 33.9217,25.92648 -3.5207,8.46105 -6.5775,17.16329 -9.0922,26.09524 -16.1453,-1.28029 -31.292,-2.03752 -42.6552,-0.69616 -2.2742,9.52718 -4.0456,19.24843 -5.295,29.13301 10.1631,5.27907 24.6096,9.92673 40.1659,14.45047 -0.5754,6.67011 -0.886,13.4114 -0.886,20.23067 0,3.62703 0.089,7.23562 0.2532,10.82204 -15.7236,3.88751 -30.3496,7.94123 -40.7145,12.80502 0.8492,9.94259 2.2305,19.73305 4.1137,29.34396 11.299,1.79751 26.466,1.63677 42.6552,1.01259 2.1504,9.04172 4.8227,17.87711 7.9952,26.47496 -13.8173,8.45601 -26.5291,16.7496 -34.9342,24.51307 3.8025,9.15717 8.0901,18.06229 12.8261,26.68592 11.3202,-1.69848 25.7493,-6.4374 40.9887,-11.91901 5.3622,8.90351 11.3137,17.40988 17.7836,25.48347 -10.4335,12.38423 -19.8859,24.25727 -25.4202,34.28033 6.4879,7.47166 13.3594,14.57775 20.6104,21.30654 10.2,-5.19696 22.3841,-14.2472 35.103,-24.25992 6.9845,5.98549 14.3364,11.5736 22.0027,16.7077 -6.2048,14.95247 -11.6139,29.13228 -13.8598,40.35586 8.3879,5.14568 17.0793,9.85628 26.032,14.09185 8.156,-8.02598 17.0534,-20.32157 26.1585,-33.71075 9.4857,4.03129 19.2829,7.45314 29.3651,10.21027 -1.1613,16.16092 -1.8061,31.32477 -0.3798,42.67637 9.539,2.20121 19.284,3.88713 29.1752,5.06294 5.2018,-10.19459 9.7492,-24.66871 14.1552,-40.25038 6.1078,0.48135 12.2693,0.71725 18.5008,0.71725 3.0439,0 6.0767,-0.0528 9.0922,-0.16876 3.7679,15.74166 7.7095,30.39786 12.4886,40.79886 9.95186,-0.77564 19.76126,-2.07052 29.38606,-3.88159 1.8824,-11.28915 1.8331,-26.46173 1.3291,-42.65527 10.1969,-2.34475 20.1514,-5.34922 29.7869,-8.98672 8.5554,13.7495 16.9458,26.39695 24.7663,34.74443 9.1184,-3.86685 17.9783,-8.2209 26.5593,-13.01598 -1.7846,-11.3106 -6.6165,-25.69749 -12.2143,-40.90434 7.8822,-4.82654 15.4521,-10.09753 22.6777,-15.8006 12.2944,10.51437 24.0929,20.04176 34.0694,25.65224 7.5189,-6.43213 14.6945,-13.24211 21.4753,-20.44163 -5.1236,-10.23811 -14.0894,-22.47966 -24.0068,-35.27182 6.7992,-7.8148 13.0769,-16.0865 18.7962,-24.76622 15.0163,6.10107 29.2367,11.42762 40.4824,13.58556 5.0825,-8.42327 9.7117,-17.15438 13.88091,-26.13743 -8.08361,-8.09658 -20.43891,-16.89575 -33.90061,-25.90538 3.5238,-8.46641 6.5547,-17.19948 9.0711,-26.13743 16.1511,1.28115 31.31402,2.05342 42.67637,0.71725 2.27494,-9.52938 4.04518,-19.24604 5.29499,-29.13301 -10.15789,-5.27913 -24.6101,-9.92682 -40.16596,-14.45048 0.5754,-6.66997 0.8649,-13.43262 0.8649,-20.25176 0,-3.62288 -0.089,-7.21858 -0.2532,-10.80094 15.72574,-3.8877 30.34547,-7.9424 40.71452,-12.80502 -0.84922,-9.94409 -2.20916,-19.73165 -4.09254,-29.34396 -11.30016,-1.80306 -26.47,-1.65736 -42.65528,-1.03368 -2.1488,-9.03403 -4.826,-17.86297 -7.9952,-26.45387 13.8188,-8.45689 26.53451,-16.74901 34.93427,-24.51307 -3.79924,-9.14926 -8.09505,-18.04816 -12.82617,-26.66482 -11.3177,1.70108 -25.7389,6.43355 -40.9887,11.919 -5.3657,-8.91138 -11.3084,-17.4244 -17.7836,-25.50456 10.4335,-12.38423 19.8859,-24.25727 25.4202,-34.28033 -6.4875,-7.47119 -13.3598,-14.57812 -20.6104,-21.30654 -10.208,5.19521 -22.3957,14.23948 -35.1241,24.25992 -6.9837,-5.98485 -14.3162,-11.57406 -21.9816,-16.7077 6.2091,-14.96292 11.6222,-29.14957 13.8598,-40.37696 -8.3943,-5.14963 -17.0931,-9.85375 -26.0531,-14.09185 -8.1548,8.02153 -17.0314,20.32113 -26.1374,33.71075 -9.4768,-4.0271 -19.2929,-7.43377 -29.3651,-10.18917 1.1611,-16.15885 1.8054,-31.31989 0.3797,-42.67637 -9.5391,-2.20128 -19.2836,-3.90822 -29.1751,-5.08404 -5.2054,10.20085 -9.74676,24.68133 -14.15516,40.27148 -6.1077,-0.48135 -12.2905,-0.73835 -18.5219,-0.73835 -3.0368,0 -6.0626,0.0744 -9.0711,0.18986 -3.7717,-15.75769 -7.7412,-30.41407 -12.5308,-40.81996 z m 21.6019,144.77901 c 70.83666,0 128.26116,57.42449 128.26116,128.26117 0,70.83669 -57.4245,128.26117 -128.26116,128.26117 -70.8367,0 -128.2612,-57.42448 -128.2612,-128.26117 0,-70.83668 57.4245,-128.26117 128.2612,-128.26117 z"
         style="fill:#d2d2d2;fill-opacity:1;stroke:none;display:inline" />
      <path
         id="path3025-3-7"
         d="m -1350.7519,620.75057 c -5.6783,0.44342 -11.2748,1.19449 -16.7666,2.2283 -1.0747,6.44576 -1.0466,15.10882 -0.7588,24.35482 -5.8212,1.33859 -11.4946,3.05467 -16.9954,5.13114 -4.8844,-7.84988 -9.6727,-15.07182 -14.1407,-19.83798 -5.2095,2.2092 -10.2743,4.67985 -15.1766,7.41967 1.0187,6.45537 3.7775,14.67158 6.974,23.35509 -4.4988,2.75502 -8.8241,5.77855 -12.9483,9.03369 -7.0198,-6.00349 -13.7593,-11.44323 -19.4525,-14.64662 -4.2895,3.67031 -8.381,7.56373 -12.2497,11.67152 2.9221,5.84842 8.0311,12.84548 13.6951,20.15114 -3.878,4.45839 -7.4575,9.17739 -10.72,14.12869 -8.5759,-3.48458 -16.6939,-6.52491 -23.1141,-7.75693 -2.9027,4.81121 -5.5569,9.79265 -7.9376,14.92365 4.6147,4.62695 11.6757,9.65514 19.3682,14.8032 -2.0102,4.831 -3.7556,9.7997 -5.1914,14.89956 -9.2185,-0.731 -17.8668,-1.16335 -24.3548,-0.39748 -1.2985,5.43972 -2.3099,10.99024 -3.0233,16.63402 5.8029,3.01419 14.0514,5.66786 22.9335,8.25077 -0.3285,3.80842 -0.5058,7.65749 -0.5058,11.55107 0,2.07092 0.051,4.13131 0.1445,6.17905 -8.9777,2.21964 -17.3287,4.53419 -23.2467,7.31126 0.4849,5.67691 1.2736,11.26695 2.3488,16.75447 6.4513,1.02633 15.1112,0.93455 24.3548,0.57816 1.2277,5.16254 2.7536,10.20727 4.565,15.11637 -7.8893,4.82811 -15.1473,9.56349 -19.9464,13.99619 2.1712,5.22845 4.6193,10.31298 7.3233,15.23683 6.4635,-0.9698 14.7021,-3.67558 23.4033,-6.80539 3.0617,5.08363 6.4597,9.94049 10.1539,14.55024 -5.9572,7.071 -11.3542,13.85015 -14.5142,19.57301 3.7044,4.26608 7.6278,8.32346 11.7679,12.16538 5.8239,-2.96732 12.7806,-8.13474 20.0428,-13.85167 3.9878,3.41752 8.1856,6.6082 12.5628,9.53955 -3.5428,8.53742 -6.6312,16.63362 -7.9135,23.04194 4.7892,2.93803 9.7517,5.62764 14.8634,8.04596 4.6569,-4.58253 9.737,-11.60294 14.9357,-19.24775 5.4161,2.30175 11.01,4.25557 16.7665,5.82975 -0.663,9.22737 -1.0312,17.88549 -0.2168,24.36689 5.4464,1.25683 11.0106,2.21941 16.6581,2.89074 2.9701,-5.82074 5.5665,-14.08505 8.0822,-22.98166 3.4874,0.27483 7.0054,0.40955 10.5633,0.40955 1.738,0 3.4697,-0.03 5.1914,-0.0964 2.1514,8.98796 4.4019,17.35617 7.1306,23.29484 5.6822,-0.44288 11.2831,-1.18221 16.7785,-2.21628 1.0748,-6.44575 1.0467,-15.10883 0.7589,-24.35483 5.8222,-1.33873 11.5058,-3.05424 17.0074,-5.13109 4.8849,7.85047 9.6755,15.07182 14.1407,19.83797 5.2064,-2.20783 10.2651,-4.69385 15.1646,-7.43174 -1.0189,-6.458 -3.7778,-14.67244 -6.974,-23.35512 4.5005,-2.75577 8.8227,-5.76535 12.9483,-9.02159 7.0197,6.00337 13.7563,11.44323 19.4525,14.64659 4.2931,-3.67252 8.3901,-7.56081 12.2617,-11.67149 -2.9254,-5.84565 -8.0445,-12.83521 -13.7071,-20.13913 3.8821,-4.46197 7.4666,-9.18485 10.7321,-14.14072 8.5738,3.48354 16.6932,6.52483 23.1141,7.75692 2.902,-4.80941 5.5451,-9.79461 7.9256,-14.92364 -4.6155,-4.62289 -11.67,-9.64694 -19.3562,-14.79115 2.012,-4.83405 3.7426,-9.82036 5.1793,-14.92365 9.2218,0.73149 17.8794,1.17244 24.3669,0.40953 1.2989,-5.44098 2.3097,-10.98888 3.0233,-16.63403 -5.7998,-3.01422 -14.0516,-5.6679 -22.9335,-8.25077 0.3285,-3.80835 0.4938,-7.6696 0.4938,-11.56312 0,-2.06855 -0.051,-4.12158 -0.1446,-6.16699 8.9789,-2.21976 17.3264,-4.53486 23.2467,-7.31127 -0.4848,-5.67776 -1.2613,-11.26615 -2.3366,-16.75447 -6.4521,-1.02949 -15.1136,-0.9463 -24.3549,-0.5902 -1.2269,-5.15814 -2.7555,-10.19919 -4.565,-15.10433 7.8901,-4.82862 15.1504,-9.56315 19.9464,-13.99619 -2.1693,-5.22393 -4.622,-10.30492 -7.3233,-15.22476 -6.4621,0.97125 -14.6961,3.67335 -23.4033,6.80537 -3.0636,-5.08812 -6.4568,-9.94878 -10.1539,-14.5623 5.9572,-7.07101 11.3542,-13.85014 14.5142,-19.57299 -3.7042,-4.26582 -7.6281,-8.32365 -11.7679,-12.16536 -5.8285,2.9663 -12.7873,8.13029 -20.0548,13.85165 -3.9875,-3.41716 -8.1741,-6.60842 -12.5508,-9.53957 3.5452,-8.54336 6.6359,-16.64348 7.9135,-23.05397 -4.7929,-2.94028 -9.7596,-5.62618 -14.8755,-8.046 -4.6561,4.58004 -9.7244,11.60272 -14.9236,19.24777 -5.4109,-2.29934 -11.0157,-4.24445 -16.7666,-5.81769 0.663,-9.2262 1.0309,-17.88267 0.2169,-24.36686 -5.4466,-1.25686 -11.0104,-2.23148 -16.6582,-2.90283 -2.9721,5.82436 -5.5651,14.09226 -8.0821,22.99374 -3.4873,-0.27483 -7.0175,-0.42157 -10.5755,-0.42157 -1.7339,0 -3.4615,0.0425 -5.1793,0.10841 -2.1535,-8.99716 -4.4199,-17.36548 -7.1546,-23.30691 z m 12.3339,82.66424 c 40.4456,0 73.2332,32.78757 73.2332,73.23308 0,40.44552 -32.7876,73.23307 -73.2332,73.23307 -40.4454,0 -73.2331,-32.78755 -73.2331,-73.23307 0,-40.44551 32.7877,-73.23308 73.2331,-73.23308 z"
         style="fill:#d2d2d2;fill-opacity:1;stroke:none;display:inline"
         inkscape:connector-curvature="0" />
      <path
         id="path3025-3-7-5"
         d="m -1410.5211,435.03629 c -3.5449,0.27682 -7.0388,0.74571 -10.4673,1.39111 -0.6708,4.02406 -0.6533,9.43236 -0.4737,15.20459 -3.6341,0.83568 -7.176,1.90702 -10.6101,3.20335 -3.0493,-4.90064 -6.0386,-9.40926 -8.828,-12.38475 -3.2522,1.37919 -6.4142,2.9216 -9.4746,4.63206 0.636,4.03005 2.3582,9.15939 4.3538,14.58046 -2.8086,1.71995 -5.5089,3.60752 -8.0836,5.63969 -4.3824,-3.74795 -8.5898,-7.14395 -12.1441,-9.14381 -2.6779,2.29135 -5.2322,4.722 -7.6474,7.28647 1.8243,3.65114 5.0138,8.01936 8.5498,12.58025 -2.421,2.78335 -4.6557,5.7294 -6.6925,8.82047 -5.3538,-2.17541 -10.4219,-4.07347 -14.43,-4.84261 -1.8121,3.00361 -3.4691,6.1135 -4.9554,9.31676 2.881,2.88858 7.2891,6.02765 12.0915,9.24156 -1.255,3.01597 -2.3446,6.1179 -3.241,9.30172 -5.755,-0.45636 -11.1541,-0.72628 -15.2045,-0.24815 -0.8107,3.39599 -1.4421,6.86115 -1.8875,10.38453 3.6227,1.88175 8.7722,3.53842 14.3173,5.15092 -0.2051,2.37757 -0.3158,4.78053 -0.3158,7.21127 0,1.29287 0.032,2.57916 0.09,3.85755 -5.6046,1.38571 -10.8182,2.83067 -14.5127,4.56438 0.3027,3.54407 0.795,7.0339 1.4663,10.45973 4.0275,0.64073 9.4339,0.58344 15.2046,0.36094 0.7664,3.22295 1.7191,6.37235 2.8499,9.43708 -4.9252,3.01416 -9.4564,5.97043 -12.4524,8.73775 1.3555,3.26409 2.8838,6.43834 4.5719,9.51227 4.0351,-0.60544 9.1784,-2.29465 14.6105,-4.24857 1.9115,3.17368 4.0328,6.2058 6.3391,9.08364 -3.7191,4.41439 -7.0884,8.64658 -9.0612,12.21933 2.3127,2.66329 4.762,5.19629 7.3467,7.59478 3.6358,-1.85248 7.9788,-5.07847 12.5125,-8.64752 2.4897,2.13354 5.1103,4.12546 7.8429,5.95549 -2.2117,5.32987 -4.1398,10.38428 -4.9403,14.38496 2.9898,1.8342 6.0879,3.51331 9.2791,5.02306 2.9073,-2.86085 6.0788,-7.24366 9.3243,-12.01628 3.3812,1.43697 6.8735,2.65673 10.4672,3.63949 -0.4139,5.7606 -0.6437,11.16582 -0.1353,15.21212 3.4001,0.78463 6.8738,1.38557 10.3995,1.80468 1.8543,-3.63386 3.4752,-8.79323 5.0457,-14.34734 2.1772,0.17158 4.3735,0.25568 6.5946,0.25568 1.0851,0 2.1662,-0.0187 3.241,-0.0602 1.3431,5.61114 2.7481,10.83537 4.4516,14.54285 3.5474,-0.27649 7.044,-0.73805 10.4747,-1.38361 0.671,-4.02405 0.6535,-9.43237 0.4738,-15.2046 3.6348,-0.83576 7.183,-1.90674 10.6176,-3.20331 3.0497,4.90101 6.0404,9.40926 8.828,12.38474 3.2503,-1.37833 6.4085,-2.93034 9.4672,-4.63959 -0.6361,-4.0317 -2.3585,-9.15993 -4.3538,-14.58049 2.8096,-1.72041 5.5079,-3.59927 8.0835,-5.63213 4.3824,3.74787 8.588,7.14395 12.1441,9.14379 2.6802,-2.29273 5.2379,-4.72017 7.6549,-7.28645 -1.8263,-3.64941 -5.0221,-8.01295 -8.5572,-12.57275 2.4235,-2.78559 4.6613,-5.73406 6.6999,-8.82798 5.3526,2.17475 10.4215,4.07341 14.4301,4.8426 1.8117,-3.00249 3.4617,-6.11472 4.9479,-9.31675 -2.8815,-2.88605 -7.2855,-6.02253 -12.084,-9.23404 1.2561,-3.01787 2.3365,-6.1308 3.2334,-9.31676 5.7571,0.45667 11.162,0.73195 15.2121,0.25567 0.8109,-3.39677 1.442,-6.8603 1.8875,-10.38454 -3.6208,-1.88176 -8.7724,-3.53844 -14.3173,-5.15091 0.2051,-2.37753 0.3083,-4.78809 0.3083,-7.2188 0,-1.29138 -0.032,-2.57308 -0.09,-3.85002 5.6055,-1.38578 10.8168,-2.83109 14.5128,-4.56439 -0.3027,-3.54459 -0.7874,-7.0334 -1.4587,-10.45973 -4.028,-0.6427 -9.4354,-0.59077 -15.2047,-0.36845 -0.7659,-3.2202 -1.7202,-6.36731 -2.8499,-9.42956 4.9258,-3.01448 9.4583,-5.97023 12.4525,-8.73775 -1.3543,-3.26127 -2.8855,-6.43331 -4.5719,-9.50474 -4.0343,0.60635 -9.1747,2.29325 -14.6106,4.24856 -1.9126,-3.17649 -4.0309,-6.21097 -6.339,-9.09117 3.719,-4.4144 7.0883,-8.64657 9.0611,-12.21932 -2.3125,-2.66313 -4.7622,-5.19641 -7.3466,-7.59477 -3.6387,1.85185 -7.9831,5.0757 -12.5201,8.64751 -2.4894,-2.13331 -5.1031,-4.1256 -7.8354,-5.9555 2.2132,-5.33358 4.1427,-10.39044 4.9403,-14.39247 -2.9922,-1.83561 -6.0928,-3.5124 -9.2867,-5.02308 -2.9067,2.85929 -6.0709,7.24352 -9.3167,12.01628 -3.378,-1.43546 -6.877,-2.64979 -10.4673,-3.63195 0.4139,-5.75987 0.6436,-11.16406 0.1354,-15.21211 -3.4003,-0.78465 -6.8737,-1.3931 -10.3996,-1.81222 -1.8555,3.63612 -3.4743,8.79773 -5.0456,14.35488 -2.1771,-0.17158 -4.381,-0.26319 -6.6023,-0.26319 -1.0824,0 -2.161,0.0265 -3.2334,0.0677 -1.3444,-5.61688 -2.7593,-10.84118 -4.4666,-14.55038 z m 7.7,51.60686 c 25.25,0 45.7191,20.46911 45.7191,45.71903 0,25.24993 -20.4691,45.71903 -45.7191,45.71903 -25.2498,0 -45.7189,-20.4691 -45.7189,-45.71903 0,-25.24992 20.4691,-45.71903 45.7189,-45.71903 z"
         style="fill:#d2d2d2;fill-opacity:1;stroke:none;display:inline"
         inkscape:connector-curvature="0" />
    </g>
  </g>
</svg>
